<mxfile host="app.diagrams.net" modified="2024-02-04T18:43:45.082Z" agent="Mozilla/5.0 (Windows NT 10.0; Win64; x64) AppleWebKit/537.36 (KHTML, like Gecko) Chrome/120.0.0.0 Safari/537.36 OPR/106.0.0.0" etag="5Kq_rYIn_RUabhXtaELp" version="23.0.2" type="github">
  <diagram name="Страница — 1" id="tskPfccO-AcvPAsMoFmn">
    <mxGraphModel dx="830" dy="473" grid="1" gridSize="10" guides="1" tooltips="1" connect="1" arrows="1" fold="1" page="1" pageScale="1" pageWidth="827" pageHeight="1169" math="0" shadow="0">
      <root>
        <mxCell id="0" />
        <mxCell id="1" parent="0" />
        <mxCell id="zOaga0ohU-6Iq7fck2n8-3" value="GUI&amp;nbsp;" style="swimlane;whiteSpace=wrap;html=1;fillColor=#ffe6cc;strokeColor=#d79b00;" vertex="1" parent="1">
          <mxGeometry x="242" y="80" width="430" height="170" as="geometry">
            <mxRectangle x="320" y="80" width="70" height="30" as="alternateBounds" />
          </mxGeometry>
        </mxCell>
        <mxCell id="zOaga0ohU-6Iq7fck2n8-5" value="Main window" style="swimlane;fontStyle=0;childLayout=stackLayout;horizontal=1;startSize=30;horizontalStack=0;resizeParent=1;resizeParentMax=0;resizeLast=0;collapsible=1;marginBottom=0;whiteSpace=wrap;html=1;" vertex="1" parent="zOaga0ohU-6Iq7fck2n8-3">
          <mxGeometry x="180" y="30" width="90" height="120" as="geometry" />
        </mxCell>
        <mxCell id="zOaga0ohU-6Iq7fck2n8-6" value="Frame" style="text;strokeColor=none;fillColor=none;align=left;verticalAlign=middle;spacingLeft=4;spacingRight=4;overflow=hidden;points=[[0,0.5],[1,0.5]];portConstraint=eastwest;rotatable=0;whiteSpace=wrap;html=1;" vertex="1" parent="zOaga0ohU-6Iq7fck2n8-5">
          <mxGeometry y="30" width="90" height="30" as="geometry" />
        </mxCell>
        <mxCell id="zOaga0ohU-6Iq7fck2n8-7" value="Settings" style="text;strokeColor=none;fillColor=none;align=left;verticalAlign=middle;spacingLeft=4;spacingRight=4;overflow=hidden;points=[[0,0.5],[1,0.5]];portConstraint=eastwest;rotatable=0;whiteSpace=wrap;html=1;" vertex="1" parent="zOaga0ohU-6Iq7fck2n8-5">
          <mxGeometry y="60" width="90" height="30" as="geometry" />
        </mxCell>
        <mxCell id="zOaga0ohU-6Iq7fck2n8-8" value="Label" style="text;strokeColor=none;fillColor=none;align=left;verticalAlign=middle;spacingLeft=4;spacingRight=4;overflow=hidden;points=[[0,0.5],[1,0.5]];portConstraint=eastwest;rotatable=0;whiteSpace=wrap;html=1;" vertex="1" parent="zOaga0ohU-6Iq7fck2n8-5">
          <mxGeometry y="90" width="90" height="30" as="geometry" />
        </mxCell>
        <mxCell id="zOaga0ohU-6Iq7fck2n8-10" value="Buttons" style="rounded=0;whiteSpace=wrap;html=1;" vertex="1" parent="zOaga0ohU-6Iq7fck2n8-3">
          <mxGeometry x="30" y="66" width="120" height="20" as="geometry" />
        </mxCell>
        <mxCell id="zOaga0ohU-6Iq7fck2n8-11" value="Cascade menue" style="rounded=0;whiteSpace=wrap;html=1;" vertex="1" parent="zOaga0ohU-6Iq7fck2n8-3">
          <mxGeometry x="296" y="95" width="120" height="20" as="geometry" />
        </mxCell>
        <mxCell id="zOaga0ohU-6Iq7fck2n8-12" value="Info bar" style="rounded=0;whiteSpace=wrap;html=1;" vertex="1" parent="zOaga0ohU-6Iq7fck2n8-3">
          <mxGeometry x="30" y="125" width="120" height="20" as="geometry" />
        </mxCell>
        <mxCell id="zOaga0ohU-6Iq7fck2n8-15" value="" style="endArrow=classic;html=1;rounded=0;exitX=0;exitY=0.5;exitDx=0;exitDy=0;entryX=1;entryY=0.5;entryDx=0;entryDy=0;" edge="1" parent="zOaga0ohU-6Iq7fck2n8-3" source="zOaga0ohU-6Iq7fck2n8-6" target="zOaga0ohU-6Iq7fck2n8-10">
          <mxGeometry width="50" height="50" relative="1" as="geometry">
            <mxPoint x="100" y="210" as="sourcePoint" />
            <mxPoint x="130" y="75" as="targetPoint" />
          </mxGeometry>
        </mxCell>
        <mxCell id="zOaga0ohU-6Iq7fck2n8-16" value="" style="endArrow=classic;html=1;rounded=0;exitX=0;exitY=0.5;exitDx=0;exitDy=0;entryX=1;entryY=0.5;entryDx=0;entryDy=0;" edge="1" parent="zOaga0ohU-6Iq7fck2n8-3" source="zOaga0ohU-6Iq7fck2n8-8" target="zOaga0ohU-6Iq7fck2n8-12">
          <mxGeometry width="50" height="50" relative="1" as="geometry">
            <mxPoint x="100" y="210" as="sourcePoint" />
            <mxPoint x="150" y="160" as="targetPoint" />
          </mxGeometry>
        </mxCell>
        <mxCell id="zOaga0ohU-6Iq7fck2n8-17" value="" style="endArrow=classic;html=1;rounded=0;exitX=1;exitY=0.5;exitDx=0;exitDy=0;entryX=0;entryY=0.5;entryDx=0;entryDy=0;" edge="1" parent="zOaga0ohU-6Iq7fck2n8-3" source="zOaga0ohU-6Iq7fck2n8-7" target="zOaga0ohU-6Iq7fck2n8-11">
          <mxGeometry width="50" height="50" relative="1" as="geometry">
            <mxPoint x="148" y="210" as="sourcePoint" />
            <mxPoint x="198" y="160" as="targetPoint" />
          </mxGeometry>
        </mxCell>
        <mxCell id="zOaga0ohU-6Iq7fck2n8-18" value="MAIN" style="swimlane;whiteSpace=wrap;html=1;fillColor=#ffe6cc;strokeColor=#d79b00;" vertex="1" parent="1">
          <mxGeometry x="370" y="270" width="200" height="70" as="geometry" />
        </mxCell>
        <mxCell id="zOaga0ohU-6Iq7fck2n8-20" value="Run GUI" style="shape=process;whiteSpace=wrap;html=1;backgroundOutline=1;" vertex="1" parent="zOaga0ohU-6Iq7fck2n8-18">
          <mxGeometry x="44" y="30" width="120" height="30" as="geometry" />
        </mxCell>
        <mxCell id="zOaga0ohU-6Iq7fck2n8-21" value="" style="endArrow=classic;html=1;rounded=0;exitX=0.5;exitY=0;exitDx=0;exitDy=0;" edge="1" parent="1" source="zOaga0ohU-6Iq7fck2n8-18">
          <mxGeometry width="50" height="50" relative="1" as="geometry">
            <mxPoint x="390" y="290" as="sourcePoint" />
            <mxPoint x="470" y="250" as="targetPoint" />
          </mxGeometry>
        </mxCell>
        <mxCell id="zOaga0ohU-6Iq7fck2n8-22" value="UTILS" style="swimlane;whiteSpace=wrap;html=1;fillColor=#ffe6cc;strokeColor=#d79b00;" vertex="1" parent="1">
          <mxGeometry x="10" y="80" width="170" height="340" as="geometry" />
        </mxCell>
        <mxCell id="zOaga0ohU-6Iq7fck2n8-32" value="Button functions" style="rounded=0;whiteSpace=wrap;html=1;" vertex="1" parent="zOaga0ohU-6Iq7fck2n8-22">
          <mxGeometry x="11" y="36" width="120" height="25" as="geometry" />
        </mxCell>
        <mxCell id="zOaga0ohU-6Iq7fck2n8-51" value="New Game reload" style="rounded=0;whiteSpace=wrap;html=1;" vertex="1" parent="zOaga0ohU-6Iq7fck2n8-22">
          <mxGeometry x="14" y="294" width="120" height="34" as="geometry" />
        </mxCell>
        <mxCell id="zOaga0ohU-6Iq7fck2n8-52" value="Cancel function" style="rounded=0;whiteSpace=wrap;html=1;" vertex="1" parent="zOaga0ohU-6Iq7fck2n8-22">
          <mxGeometry x="12" y="178" width="120" height="34" as="geometry" />
        </mxCell>
        <mxCell id="zOaga0ohU-6Iq7fck2n8-54" value="Apply function" style="rounded=0;whiteSpace=wrap;html=1;" vertex="1" parent="zOaga0ohU-6Iq7fck2n8-22">
          <mxGeometry x="13" y="240" width="120" height="34" as="geometry" />
        </mxCell>
        <mxCell id="zOaga0ohU-6Iq7fck2n8-33" value="" style="endArrow=classic;html=1;rounded=0;entryX=1;entryY=0.5;entryDx=0;entryDy=0;exitX=0;exitY=0.5;exitDx=0;exitDy=0;" edge="1" parent="1" source="zOaga0ohU-6Iq7fck2n8-10" target="zOaga0ohU-6Iq7fck2n8-32">
          <mxGeometry width="50" height="50" relative="1" as="geometry">
            <mxPoint x="270" y="160" as="sourcePoint" />
            <mxPoint x="440" y="240" as="targetPoint" />
            <Array as="points">
              <mxPoint x="220" y="130" />
            </Array>
          </mxGeometry>
        </mxCell>
        <mxCell id="zOaga0ohU-6Iq7fck2n8-34" value="Timer" style="rounded=0;whiteSpace=wrap;html=1;" vertex="1" parent="1">
          <mxGeometry x="21" y="157" width="120" height="25" as="geometry" />
        </mxCell>
        <mxCell id="zOaga0ohU-6Iq7fck2n8-35" value="Calculation of the remaining number of mines" style="rounded=0;whiteSpace=wrap;html=1;" vertex="1" parent="1">
          <mxGeometry x="22" y="197" width="120" height="43" as="geometry" />
        </mxCell>
        <mxCell id="zOaga0ohU-6Iq7fck2n8-36" value="" style="endArrow=classic;html=1;rounded=0;entryX=1;entryY=0.5;entryDx=0;entryDy=0;exitX=0;exitY=0.5;exitDx=0;exitDy=0;" edge="1" parent="1" source="zOaga0ohU-6Iq7fck2n8-12" target="zOaga0ohU-6Iq7fck2n8-34">
          <mxGeometry width="50" height="50" relative="1" as="geometry">
            <mxPoint x="390" y="290" as="sourcePoint" />
            <mxPoint x="440" y="240" as="targetPoint" />
          </mxGeometry>
        </mxCell>
        <mxCell id="zOaga0ohU-6Iq7fck2n8-37" value="" style="endArrow=classic;html=1;rounded=0;entryX=1;entryY=0.5;entryDx=0;entryDy=0;exitX=0;exitY=0.5;exitDx=0;exitDy=0;" edge="1" parent="1" source="zOaga0ohU-6Iq7fck2n8-12" target="zOaga0ohU-6Iq7fck2n8-35">
          <mxGeometry width="50" height="50" relative="1" as="geometry">
            <mxPoint x="390" y="290" as="sourcePoint" />
            <mxPoint x="440" y="240" as="targetPoint" />
          </mxGeometry>
        </mxCell>
        <mxCell id="zOaga0ohU-6Iq7fck2n8-38" value="SETTINGS" style="swimlane;whiteSpace=wrap;html=1;fillColor=#ffe6cc;strokeColor=#d79b00;" vertex="1" parent="1">
          <mxGeometry x="700" y="80" width="200" height="270" as="geometry" />
        </mxCell>
        <mxCell id="zOaga0ohU-6Iq7fck2n8-40" value="New Game" style="rounded=0;whiteSpace=wrap;html=1;" vertex="1" parent="zOaga0ohU-6Iq7fck2n8-38">
          <mxGeometry x="40" y="35" width="120" height="25" as="geometry" />
        </mxCell>
        <mxCell id="zOaga0ohU-6Iq7fck2n8-41" value="SETTINGS" style="swimlane;fontStyle=0;childLayout=stackLayout;horizontal=1;startSize=30;horizontalStack=0;resizeParent=1;resizeParentMax=0;resizeLast=0;collapsible=1;marginBottom=0;whiteSpace=wrap;html=1;" vertex="1" parent="zOaga0ohU-6Iq7fck2n8-38">
          <mxGeometry x="30" y="66" width="140" height="120" as="geometry" />
        </mxCell>
        <mxCell id="zOaga0ohU-6Iq7fck2n8-42" value="Row numbers:" style="text;strokeColor=none;fillColor=none;align=left;verticalAlign=middle;spacingLeft=4;spacingRight=4;overflow=hidden;points=[[0,0.5],[1,0.5]];portConstraint=eastwest;rotatable=0;whiteSpace=wrap;html=1;" vertex="1" parent="zOaga0ohU-6Iq7fck2n8-41">
          <mxGeometry y="30" width="140" height="30" as="geometry" />
        </mxCell>
        <mxCell id="zOaga0ohU-6Iq7fck2n8-43" value="Column numbers:" style="text;strokeColor=none;fillColor=none;align=left;verticalAlign=middle;spacingLeft=4;spacingRight=4;overflow=hidden;points=[[0,0.5],[1,0.5]];portConstraint=eastwest;rotatable=0;whiteSpace=wrap;html=1;" vertex="1" parent="zOaga0ohU-6Iq7fck2n8-41">
          <mxGeometry y="60" width="140" height="30" as="geometry" />
        </mxCell>
        <mxCell id="zOaga0ohU-6Iq7fck2n8-44" value="Mines numbers:" style="text;strokeColor=none;fillColor=none;align=left;verticalAlign=middle;spacingLeft=4;spacingRight=4;overflow=hidden;points=[[0,0.5],[1,0.5]];portConstraint=eastwest;rotatable=0;whiteSpace=wrap;html=1;" vertex="1" parent="zOaga0ohU-6Iq7fck2n8-41">
          <mxGeometry y="90" width="140" height="30" as="geometry" />
        </mxCell>
        <mxCell id="zOaga0ohU-6Iq7fck2n8-48" value="Cansel button" style="rounded=0;whiteSpace=wrap;html=1;" vertex="1" parent="zOaga0ohU-6Iq7fck2n8-38">
          <mxGeometry x="40" y="195" width="120" height="25" as="geometry" />
        </mxCell>
        <mxCell id="zOaga0ohU-6Iq7fck2n8-46" value="" style="endArrow=classic;html=1;rounded=0;" edge="1" parent="1">
          <mxGeometry width="50" height="50" relative="1" as="geometry">
            <mxPoint x="670" y="190" as="sourcePoint" />
            <mxPoint x="700" y="190" as="targetPoint" />
          </mxGeometry>
        </mxCell>
        <mxCell id="zOaga0ohU-6Iq7fck2n8-49" value="Apply button" style="rounded=0;whiteSpace=wrap;html=1;" vertex="1" parent="1">
          <mxGeometry x="741" y="313" width="120" height="25" as="geometry" />
        </mxCell>
        <mxCell id="zOaga0ohU-6Iq7fck2n8-55" value="" style="endArrow=classic;html=1;rounded=0;exitX=1;exitY=0.5;exitDx=0;exitDy=0;entryX=1;entryY=0.5;entryDx=0;entryDy=0;" edge="1" parent="1" source="zOaga0ohU-6Iq7fck2n8-40" target="zOaga0ohU-6Iq7fck2n8-51">
          <mxGeometry width="50" height="50" relative="1" as="geometry">
            <mxPoint x="790" y="240" as="sourcePoint" />
            <mxPoint x="840" y="190" as="targetPoint" />
            <Array as="points">
              <mxPoint x="930" y="128" />
              <mxPoint x="930" y="390" />
              <mxPoint x="510" y="390" />
              <mxPoint x="240" y="390" />
            </Array>
          </mxGeometry>
        </mxCell>
        <mxCell id="zOaga0ohU-6Iq7fck2n8-56" value="" style="endArrow=classic;html=1;rounded=0;entryX=1;entryY=0.5;entryDx=0;entryDy=0;exitX=0;exitY=0.75;exitDx=0;exitDy=0;" edge="1" parent="1" source="zOaga0ohU-6Iq7fck2n8-48" target="zOaga0ohU-6Iq7fck2n8-52">
          <mxGeometry width="50" height="50" relative="1" as="geometry">
            <mxPoint x="850" y="288" as="sourcePoint" />
            <mxPoint x="680" y="300" as="targetPoint" />
            <Array as="points">
              <mxPoint x="640" y="294" />
              <mxPoint x="640" y="360" />
              <mxPoint x="240" y="360" />
              <mxPoint x="240" y="275" />
            </Array>
          </mxGeometry>
        </mxCell>
        <mxCell id="zOaga0ohU-6Iq7fck2n8-57" value="" style="endArrow=classic;html=1;rounded=0;entryX=1;entryY=0.5;entryDx=0;entryDy=0;" edge="1" parent="1" target="zOaga0ohU-6Iq7fck2n8-54">
          <mxGeometry width="50" height="50" relative="1" as="geometry">
            <mxPoint x="740" y="330" as="sourcePoint" />
            <mxPoint x="800" y="300" as="targetPoint" />
            <Array as="points">
              <mxPoint x="670" y="330" />
              <mxPoint x="670" y="370" />
              <mxPoint x="470" y="370" />
              <mxPoint x="200" y="370" />
              <mxPoint x="200" y="337" />
            </Array>
          </mxGeometry>
        </mxCell>
        <mxCell id="zOaga0ohU-6Iq7fck2n8-58" value="" style="endArrow=classic;html=1;rounded=0;exitX=1;exitY=0.5;exitDx=0;exitDy=0;entryX=1;entryY=0.5;entryDx=0;entryDy=0;" edge="1" parent="1" source="zOaga0ohU-6Iq7fck2n8-43" target="zOaga0ohU-6Iq7fck2n8-49">
          <mxGeometry width="50" height="50" relative="1" as="geometry">
            <mxPoint x="780" y="350" as="sourcePoint" />
            <mxPoint x="830" y="300" as="targetPoint" />
            <Array as="points">
              <mxPoint x="910" y="221" />
              <mxPoint x="910" y="326" />
            </Array>
          </mxGeometry>
        </mxCell>
      </root>
    </mxGraphModel>
  </diagram>
</mxfile>
